<svg width="25" height="26" viewBox="0 0 25 26" fill="none" xmlns="http://www.w3.org/2000/svg">
<path d="M12.2314 2.99351e-06C13.2848 -0.000829758 14.331 0.172088 15.3281 0.511792C14.3832 1.48865 13.7881 2.75065 13.6353 4.10111C13.4826 5.45157 13.781 6.81461 14.4838 7.9778C15.1867 9.141 16.2547 10.039 17.5212 10.5318C18.7878 11.0246 20.1818 11.0846 21.486 10.7024L21.8103 10.5957V14.4054C21.8105 14.564 21.8383 14.7215 21.8924 14.8706L21.9554 15.0171L24.3036 19.7148C24.4124 19.9324 24.4669 20.1731 24.4623 20.4164C24.4577 20.6596 24.3943 20.8981 24.2774 21.1114C24.1605 21.3248 23.9936 21.5066 23.7911 21.6414C23.5886 21.7761 23.3564 21.8598 23.1144 21.8852L22.9571 21.8934H1.50571C1.26235 21.8934 1.02261 21.8345 0.807021 21.7216C0.591433 21.6087 0.406426 21.4453 0.267857 21.2452C0.129288 21.0452 0.0412887 20.8145 0.0113981 20.573C-0.0184925 20.3315 0.0106175 20.0863 0.0962341 19.8585L0.159182 19.7148L2.50876 15.0171C2.57938 14.875 2.62476 14.7217 2.64287 14.5641L2.65244 14.4067V9.57895C2.65244 7.03845 3.66165 4.60201 5.45805 2.80561C7.25445 1.00921 9.6909 2.99351e-06 12.2314 2.99351e-06ZM19.7577 1.36842C20.665 1.36842 21.5352 1.72885 22.1768 2.37043C22.8183 3.012 23.1788 3.88216 23.1788 4.78948C23.1788 5.69679 22.8183 6.56695 22.1768 7.20852C21.5352 7.8501 20.665 8.21053 19.7577 8.21053C18.8504 8.21053 17.9802 7.8501 17.3387 7.20852C16.6971 6.56695 16.3367 5.69679 16.3367 4.78948C16.3367 3.88216 16.6971 3.012 17.3387 2.37043C17.9802 1.72885 18.8504 1.36842 19.7577 1.36842ZM12.2314 26C11.3821 26.0004 10.5535 25.7375 9.85994 25.2473C9.16635 24.7571 8.64186 24.0639 8.35876 23.2632H16.104C15.8209 24.0639 15.2964 24.7571 14.6028 25.2473C13.9093 25.7375 13.0807 26.0004 12.2314 26Z" fill="black"/>
<circle cx="19.6733" cy="4.70746" r="3.76316" fill="#F70101"/>
</svg>
