<svg width="42" height="38" viewBox="0 0 42 38" fill="none" xmlns="http://www.w3.org/2000/svg">
<path d="M13.65 29.5556V6.33333H14.7C14.7 4.57407 15.3125 3.0787 16.5375 1.84722C17.7625 0.615741 19.25 0 21 0C22.75 0 24.2375 0.615741 25.4625 1.84722C26.6875 3.0787 27.3 4.57407 27.3 6.33333H28.35V29.5556H13.65ZM17.85 6.33333H24.15C24.15 5.41852 23.8525 4.66204 23.2575 4.06389C22.6625 3.46574 21.91 3.16667 21 3.16667C20.09 3.16667 19.3375 3.46574 18.7425 4.06389C18.1475 4.66204 17.85 5.41852 17.85 6.33333ZM31.5 29.5556V6.33333H37.8V29.5556H31.5ZM4.2 29.5556V6.33333H10.5V29.5556H4.2ZM0 38V33.7778H42V38H0Z" fill="#1E4A3F"/>
</svg>
