<svg width="21" height="21" viewBox="0 0 21 21" fill="none" xmlns="http://www.w3.org/2000/svg">
<path d="M4.375 16.625H5.62188L14.175 8.07188L12.9281 6.825L4.375 15.3781V16.625ZM2.625 18.375V14.6562L14.175 3.12813C14.35 2.96771 14.5434 2.84375 14.7551 2.75625C14.9669 2.66875 15.1891 2.625 15.4219 2.625C15.6546 2.625 15.8807 2.66875 16.1 2.75625C16.3193 2.84375 16.5089 2.975 16.6687 3.15L17.8719 4.375C18.0469 4.53542 18.1746 4.725 18.2551 4.94375C18.3356 5.1625 18.3756 5.38125 18.375 5.6C18.375 5.83333 18.335 6.05588 18.2551 6.26763C18.1752 6.47938 18.0475 6.67246 17.8719 6.84687L6.34375 18.375H2.625ZM13.5406 7.45937L12.9281 6.825L14.175 8.07188L13.5406 7.45937Z" fill="black"/>
</svg>
