<svg width="37" height="34" viewBox="0 0 37 34" fill="none" xmlns="http://www.w3.org/2000/svg">
<path fill-rule="evenodd" clip-rule="evenodd" d="M12.95 3.74969C12.8298 6.78739 12.95 25.8997 12.95 25.8997C13.2485 25.8997 13.5408 25.9472 13.8269 26.0422L24.05 29.4499V7.29984C23.7519 7.29976 23.4559 7.25166 23.1731 7.15739L12.95 3.74969ZM12.0731 0.142193C12.6423 -0.0473977 13.2577 -0.0473977 13.8269 0.142193L24.05 3.54989L33.8346 0.288343C34.1961 0.167885 34.581 0.135032 34.9577 0.192491C35.3343 0.249949 35.692 0.396075 36.0011 0.61883C36.3102 0.841585 36.5619 1.13459 36.7356 1.47372C36.9093 1.81285 36.9999 2.18838 37 2.56939V27.0338C36.9999 27.6163 36.8166 28.184 36.4759 28.6565C36.1353 29.129 35.6545 29.4823 35.1019 29.6663L24.9269 33.0574C24.3571 33.2479 23.7429 33.2479 23.1731 33.0574L12.95 29.6497L3.16535 32.9112C2.80388 33.0317 2.41897 33.0646 2.04231 33.0071C1.66566 32.9496 1.30805 32.8035 0.998936 32.5808C0.689825 32.358 0.438062 32.065 0.264387 31.7259C0.0907112 31.3867 9.38758e-05 31.0112 0 30.6302V6.16579C5.38949e-05 5.5833 0.183404 5.01559 0.524073 4.5431C0.864741 4.07062 1.34545 3.71731 1.8981 3.53324L12.0731 0.142193Z" fill="#1E4A3F"/>
</svg>
