<svg width="16" height="16" viewBox="0 0 16 16" fill="none" xmlns="http://www.w3.org/2000/svg">
<path d="M1.75 14H2.99688L11.55 5.44688L10.3031 4.2L1.75 12.7531V14ZM0 15.75V12.0312L11.55 0.503125C11.725 0.342708 11.9184 0.21875 12.1301 0.13125C12.3419 0.0437501 12.5641 0 12.7969 0C13.0296 0 13.2557 0.0437501 13.475 0.13125C13.6943 0.21875 13.8839 0.35 14.0437 0.525L15.2469 1.75C15.4219 1.91042 15.5496 2.1 15.6301 2.31875C15.7106 2.5375 15.7506 2.75625 15.75 2.975C15.75 3.20833 15.71 3.43088 15.6301 3.64263C15.5502 3.85438 15.4225 4.04746 15.2469 4.22187L3.71875 15.75H0ZM10.9156 4.83437L10.3031 4.2L11.55 5.44688L10.9156 4.83437Z" fill="black"/>
</svg>
